FAIDC1_INITIAL_WALK01_kinetics.mot
nRows=22
nColumns=19

name FAIDC1_INITIAL_WALK01_kinetics.mot
datacolumns 19
datarows 22
range 0.0000000000 0.0104999999
endheader
time	ground_force_vx	ground_force_vy	ground_force_vz	ground_force_px	ground_force_py	ground_force_pz	1_ground_force_vx	1_ground_force_vy	1_ground_force_vz	1_ground_force_px	1_ground_force_py	1_ground_force_pz	ground_torque_x	ground_torque_y	ground_torque_z	1_ground_torque_x	1_ground_torque_y	1_ground_torque_z
        0.0000000000	        0.0000000000	        0.0000000000	        0.0000000000	        0.8362041116	        0.0000000000	        0.2473450303	       -3.7712230682	       32.0368957520	        4.4526734352	        0.3032011688	        0.0000000000	       -0.0758327246	        0.0000000000	        0.0000000000	        0.0000000000	        0.0000000000	       -0.3782943487	        0.0000000000	
        0.0005000000	        0.0000000000	        0.0000000000	        0.0000000000	        0.8362041116	        0.0000000000	        0.2473450303	       -3.5072257519	       34.9203109741	        5.1316161156	        0.3080130517	        0.0000000000	       -0.0742500946	        0.0000000000	        0.0000000000	        0.0000000000	        0.0000000000	       -0.3601276875	        0.0000000000	
        0.0010000000	        0.0000000000	        0.0000000000	        0.0000000000	        0.8362041116	        0.0000000000	        0.2473450303	       -3.2428226471	       38.0104675293	        5.7948193550	        0.3123161793	        0.0000000000	       -0.0727116913	        0.0000000000	        0.0000000000	        0.0000000000	        0.0000000000	       -0.3405852020	        0.0000000000	
        0.0015000000	        0.0000000000	        0.0000000000	        0.0000000000	        0.8362041116	        0.0000000000	        0.2473450303	       -2.9801454544	       41.3216705322	        6.4340081215	        0.3161517084	        0.0000000000	       -0.0712245777	        0.0000000000	        0.0000000000	        0.0000000000	        0.0000000000	       -0.3204537332	        0.0000000000	
        0.0020000001	        0.0000000000	        0.0000000000	        0.0000000000	        0.8362041116	        0.0000000000	        0.2473450303	       -2.7210977077	       44.8684120178	        7.0410022736	        0.3195592463	        0.0000000000	       -0.0697946772	        0.0000000000	        0.0000000000	        0.0000000000	       -0.0000000000	       -0.3004159033	        0.0000000000	
        0.0024999999	        0.0000000000	        0.0000000000	        0.0000000000	        0.8362041116	        0.0000000000	        0.2473450303	       -2.4672992229	       48.6650695801	        7.6078643799	        0.3225773275	        0.0000000000	       -0.0684267506	        0.0000000000	        0.0000000000	        0.0000000000	        0.0000000000	       -0.2810288072	        0.0000000000	
        0.0030000000	        0.0000000000	        0.0000000000	        0.0000000000	        0.8362041116	        0.0000000000	        0.2473450303	       -2.2200462818	       52.7255172729	        8.1270380020	        0.3252431750	        0.0000000000	       -0.0671244040	        0.0000000000	        0.0000000000	        0.0000000000	       -0.0000000000	       -0.2627104223	        0.0000000000	
        0.0035000001	        0.0000000000	        0.0000000000	        0.0000000000	        0.8362041116	        0.0000000000	        0.2473450303	       -1.9802879095	       57.0627555847	        8.5914878845	        0.3275927901	        0.0000000000	       -0.0658900961	        0.0000000000	        0.0000000000	        0.0000000000	       -0.0000000000	       -0.2457337379	        0.0000000000	
        0.0040000002	        0.0000000000	        0.0000000000	        0.0000000000	        0.8362041116	        0.0000000000	        0.2473450303	       -1.7486224174	       61.6885261536	        8.9948196411	        0.3296605647	        0.0000000000	       -0.0647252053	        0.0000000000	        0.0000000000	        0.0000000000	        0.0000000000	       -0.2302288115	        0.0000000000	
        0.0044999998	        0.0000000000	        0.0000000000	        0.0000000000	        0.8362041116	        0.0000000000	        0.2473450303	       -1.5253099203	       66.6128921509	        9.3314008713	        0.3314790726	        0.0000000000	       -0.0636301190	        0.0000000000	        0.0000000000	        0.0000000000	        0.0000000000	       -0.2161918283	        0.0000000000	
        0.0049999999	        0.0000000000	        0.0000000000	        0.0000000000	        0.8362041116	        0.0000000000	        0.2473450303	       -1.3103032112	       71.8439102173	        9.5964536667	        0.3330787122	        0.0000000000	       -0.0626043007	        0.0000000000	        0.0000000000	        0.0000000000	        0.0000000000	       -0.2034996599	        0.0000000000	
        0.0055000000	        0.0000000000	        0.0000000000	        0.0000000000	        0.8362041116	        0.0000000000	        0.2473450303	       -1.1032938957	       77.3872299194	        9.7861328125	        0.3344875574	        0.0000000000	       -0.0616464317	        0.0000000000	        0.0000000000	        0.0000000000	        0.0000000000	       -0.1919286102	        0.0000000000	
        0.0060000001	        0.0000000000	        0.0000000000	        0.0000000000	        0.8362041116	        0.0000000000	        0.2473450303	       -0.9037722945	       83.2458267212	        9.8975887299	        0.3357311487	        0.0000000000	       -0.0607545115	        0.0000000000	        0.0000000000	        0.0000000000	        0.0000000000	       -0.1811755747	        0.0000000000	
        0.0065000001	        0.0000000000	        0.0000000000	        0.0000000000	        0.8362041116	        0.0000000000	        0.2473450303	       -0.7110982537	       89.4197616577	        9.9290027618	        0.3368322849	        0.0000000000	       -0.0599259846	        0.0000000000	        0.0000000000	        0.0000000000	        0.0000000000	       -0.1708801091	        0.0000000000	
        0.0070000002	        0.0000000000	        0.0000000000	        0.0000000000	        0.8362041116	        0.0000000000	        0.2473450303	       -0.5245811343	       95.9059295654	        9.8796033859	        0.3378111422	        0.0000000000	       -0.0591578558	        0.0000000000	        0.0000000000	        0.0000000000	        0.0000000000	       -0.1606461704	        0.0000000000	
        0.0074999998	        0.0000000000	        0.0000000000	        0.0000000000	        0.8362041116	        0.0000000000	        0.2473450303	       -0.3435662985	      102.6980056763	        9.7496614456	        0.3386852741	        0.0000000000	       -0.0584467985	        0.0000000000	        0.0000000000	        0.0000000000	        0.0000000000	       -0.1500622630	        0.0000000000	
        0.0080000004	        0.0000000000	        0.0000000000	        0.0000000000	        0.8362041116	        0.0000000000	        0.2473450303	       -0.1675254256	      109.7863388062	        9.5404644012	        0.3394698203	        0.0000000000	       -0.0577892587	        0.0000000000	        0.0000000000	        0.0000000000	        0.0000000000	       -0.1387195438	        0.0000000000	
        0.0085000005	        0.0000000000	        0.0000000000	        0.0000000000	        0.8362041116	        0.0000000000	        0.2473450303	        0.0038504801	      117.1579666138	        9.2542715073	        0.3401775956	        0.0000000000	       -0.0571815409	        0.0000000000	        0.0000000000	        0.0000000000	        0.0000000000	       -0.1262269914	        0.0000000000	
        0.0089999996	        0.0000000000	        0.0000000000	        0.0000000000	        0.8362041116	        0.0000000000	        0.2473450303	        0.1705579609	      124.7967071533	        8.8942565918	        0.3408192992	        0.0000000000	       -0.0566199049	        0.0000000000	        0.0000000000	        0.0000000000	        0.0000000000	       -0.1122238412	        0.0000000000	
        0.0094999997	        0.0000000000	        0.0000000000	        0.0000000000	        0.8362041116	        0.0000000000	        0.2473450303	        0.3321897089	      132.6833038330	        8.4644250870	        0.3414039314	        0.0000000000	       -0.0561006330	        0.0000000000	        0.0000000000	        0.0000000000	        0.0000000000	       -0.0963892713	        0.0000000000	
        0.0099999998	        0.0000000000	        0.0000000000	        0.0000000000	        0.8362041116	        0.0000000000	        0.2473450303	        0.4878482521	      140.7955780029	        7.9695348740	        0.3419387639	        0.0000000000	       -0.0556201003	        0.0000000000	        0.0000000000	        0.0000000000	        0.0000000000	       -0.0784495398	        0.0000000000	
        0.0104999999	        0.0000000000	        0.0000000000	        0.0000000000	        0.8362041116	        0.0000000000	        0.2473450303	        0.6360691786	      149.1087036133	        7.4149889946	        0.3424298167	        0.0000000000	       -0.0551748388	        0.0000000000	        0.0000000000	        0.0000000000	        0.0000000000	       -0.0581829697	        0.0000000000	
